<?xml version="1.0" encoding="UTF-8" standalone="no"?><!DOCTYPE svg PUBLIC "-//W3C//DTD SVG 1.1//EN" "http://www.w3.org/Graphics/SVG/1.1/DTD/svg11.dtd"><svg width="100%" height="100%" viewBox="0 0 30 34" version="1.1" xmlns="http://www.w3.org/2000/svg" xmlns:xlink="http://www.w3.org/1999/xlink" xml:space="preserve" xmlns:serif="http://www.serif.com/" style="fill-rule:evenodd;clip-rule:evenodd;stroke-linejoin:round;stroke-miterlimit:2;"><path d="M28.343,7.536c0,-1.028 -0.834,-1.862 -1.862,-1.862l-22.873,0c-1.028,0 -1.862,0.834 -1.862,1.862l0,23.583c0,1.027 0.834,1.861 1.862,1.861l22.873,0c1.028,0 1.862,-0.834 1.862,-1.861l0,-23.583Z" style="fill:#fff;"/><path id="Shape" d="M26.786,4.25l-3.215,0l0,-3.453c0,-0.44 -0.359,-0.797 -0.803,-0.797l-0.536,0c-0.444,0 -0.803,0.357 -0.803,0.797l0,3.453l-12.858,0l0,-3.453c0,-0.44 -0.359,-0.797 -0.803,-0.797l-0.536,0c-0.444,0 -0.803,0.357 -0.803,0.797l0,3.453l-3.215,0c-1.775,0 -3.214,1.427 -3.214,3.188l0,23.374c0,1.761 1.439,3.188 3.214,3.188l23.572,0c1.775,0 3.214,-1.427 3.214,-3.188l0,-23.375c0,-1.76 -1.439,-3.187 -3.214,-3.187Zm-23.572,2.125l23.572,0c0.59,0 1.071,0.477 1.071,1.062l0,3.188l-25.714,0l0,-3.188c0,-0.585 0.481,-1.062 1.071,-1.062Zm23.572,25.5l-23.572,0c-0.59,0 -1.071,-0.477 -1.071,-1.063l0,-18.062l25.714,0l0,18.063c0,0.585 -0.481,1.062 -1.071,1.062Z" style="fill:#1d6c93;fill-rule:nonzero;"/></svg>